# 3ds Max Wavefront OBJ Exporter v0.97b - (c)2007 guruware
# File Created: 25.07.2015 11:27:22

mtllib D10.mtl

#
# object Spindle001
#

v  0.6943 11.5336 -0.0953
v  0.7043 11.5336 -0.0953
v  0.6974 11.5336 -0.1048
v  0.6862 11.5336 -0.1011
v  0.6862 11.5336 -0.0894
v  0.6974 11.5336 -0.0858
v  9.6073 5.7668 -0.0953
v  3.4486 5.7668 -8.5720
v  -6.5164 5.7668 -5.3342
v  -6.5164 5.7668 5.1436
v  3.4486 5.7668 8.3815
v  0.7043 0.0000 -0.0953
v  0.6974 0.0000 -0.1048
v  0.6862 0.0000 -0.1011
v  0.6862 0.0000 -0.0894
v  0.6974 0.0000 -0.0858
v  0.6943 0.0000 -0.0953
# 17 vertices

vn 0.0000 1.0000 -0.0000
vn 0.5437 0.8393 0.0000
vn 0.1680 0.8393 -0.5170
vn -0.4398 0.8393 -0.3196
vn -0.4398 0.8393 0.3196
vn 0.1680 0.8393 0.5170
vn 1.0000 0.0000 -0.0000
vn 0.5437 -0.8393 -0.0000
vn 0.1680 -0.8393 -0.5170
vn -0.4398 -0.8393 -0.3196
vn -0.4398 -0.8393 0.3196
vn 0.1680 -0.8393 0.5170
vn 0.0000 -1.0000 -0.0000
# 13 vertex normals

vt 0.5000 0.5000 0.0000
vt 0.5006 0.5000 0.0000
vt 0.5002 0.5005 0.0000
vt 0.4995 0.5003 0.0000
vt 0.4995 0.4997 0.0000
vt 0.5002 0.4995 0.0000
vt 1.0000 0.5000 0.0000
vt 0.6545 0.9755 0.0000
vt 0.0955 0.7939 0.0000
vt 0.0955 0.2061 0.0000
vt 0.6545 0.0245 0.0000
vt 0.0000 1.0000 0.0000
vt 0.0000 0.0000 0.0000
vt 0.2000 0.0000 0.0000
vt 0.2000 1.0000 0.0000
vt 0.4000 0.0000 0.0000
vt 0.4000 1.0000 0.0000
vt 0.6000 0.0000 0.0000
vt 0.6000 1.0000 0.0000
vt 0.8000 0.0000 0.0000
vt 0.8000 1.0000 0.0000
vt 1.0000 0.0000 0.0000
vt 1.0000 1.0000 0.0000
# 23 texture coords

g Spindle001
usemtl wire_135110008
s 16
f 1/1/1 2/2/1 3/3/1 
f 1/1/1 3/3/1 4/4/1 
f 1/1/1 4/4/1 5/5/1 
f 1/1/1 5/5/1 6/6/1 
f 1/1/1 6/6/1 2/2/1 
s 4
f 2/2/2 7/7/2 8/8/3 3/3/3 
f 3/3/3 8/8/3 9/9/4 4/4/4 
f 4/4/4 9/9/4 10/10/5 5/5/5 
f 5/5/5 10/10/5 11/11/6 6/6/6 
f 6/6/6 11/11/6 7/7/2 2/2/2 
s 8
f 7/12/7 7/13/7 8/14/7 8/15/7 
f 8/15/7 8/14/7 9/16/7 9/17/7 
f 9/17/7 9/16/7 10/18/7 10/19/7 
f 10/19/7 10/18/7 11/20/7 11/21/7 
f 11/21/7 11/20/7 7/22/7 7/23/7 
s 4
f 7/7/8 12/2/8 13/3/9 8/8/9 
f 8/8/9 13/3/9 14/4/10 9/9/10 
f 9/9/10 14/4/10 15/5/11 10/10/11 
f 10/10/11 15/5/11 16/6/12 11/11/12 
f 11/11/12 16/6/12 12/2/8 7/7/8 
s 16
f 12/2/13 17/1/13 13/3/13 
f 13/3/13 17/1/13 14/4/13 
f 14/4/13 17/1/13 15/5/13 
f 15/5/13 17/1/13 16/6/13 
f 16/6/13 17/1/13 12/2/13 
# 15 polygons - 10 triangles

